<svg version="1" xmlns="http://www.w3.org/2000/svg" width="666.667" height="666.667" viewBox="0 0 500.000000 500.000000"><path d="M52 1.6c-3.6.7-10.7 3.4-15.8 5.9-13 6.5-22.3 15.7-28.7 28.7C-.5 52.6 0 36.6 0 250s-.5 197.4 7.5 213.8c6.4 13 15.7 22.3 28.7 28.7 16.4 8 .4 7.5 213.8 7.5s197.4.5 213.8-7.5c13-6.4 22.3-15.7 28.7-28.7 8-16.4 7.5-.4 7.5-213.8s.5-197.4-7.5-213.8c-6.4-13-15.7-22.3-28.7-28.7-16.4-8-.4-7.5-214.3-7.4C90.3.1 57.4.4 52 1.6zm390.6 51c1.5 1.1 3.7 3.3 4.8 4.8l2.1 2.7v379.8l-2.1 2.7c-1.1 1.5-3.3 3.7-4.8 4.8l-2.7 2.1H60.1l-2.7-2.1c-1.5-1.1-3.7-3.3-4.8-4.8l-2.1-2.7-.3-187.2c-.1-103 0-188.6.3-190.4.7-4 4.9-9.1 9-10.9 2.5-1.1 36.3-1.3 191.7-1.1l188.7.2 2.7 2.1z"/><path d="M109.2 101.7c-1.8.9-4.5 3.2-6 5.1l-2.7 3.5-.3 138.4c-.3 154.3-.8 142.5 6.6 148.1 3.5 2.7 3.6 2.7 23.4 3l19.8.3V163.4l2.3-4.4c1.6-3.3 3.4-5.1 6.7-6.8l4.4-2.2h173.2l4.4 2.2c3.3 1.7 5.1 3.5 6.8 6.8l2.2 4.4v173.2l-2.2 4.4c-1.7 3.3-3.5 5.1-6.8 6.7l-4.4 2.3H200v50l94.8-.2 94.9-.3 3.5-2.7c7.4-5.6 6.9 6.2 6.6-148.1l-.3-138.4-2.7-3.5c-5.6-7.3 6-6.8-147-6.8-125.1 0-137.6.2-140.6 1.7z"/><path d="M209.5 201.4c-4.1 1.8-8.3 6.9-9 10.9-.3 1.8-.5 19.9-.3 40.4.3 35.7.4 37.3 2.4 39.9 1.1 1.5 3.3 3.7 4.8 4.8 2.7 2 3.9 2.1 42.6 2.1s39.9-.1 42.6-2.1c1.5-1.1 3.7-3.3 4.8-4.8 2-2.7 2.1-3.9 2.1-42.6s-.1-39.9-2.1-42.6c-1.1-1.5-3.3-3.7-4.8-4.8-2.6-2-4.1-2.1-41.4-2.3-30.7-.2-39.3 0-41.7 1.1z"/></svg>